<svg xmlns="http://www.w3.org/2000/svg" version="1.1" xmlns:xlink="http://www.w3.org/1999/xlink"
    xmlns:svgjs="http://svgjs.dev/svgjs" viewBox="0 0 800 800">\
    <defs>
        <linearGradient x1="50%" y1="0%" x2="50%" y2="100%" id="ssscribble-grad">
            <stop stop-color="hsl(50, 98%, 60%)" stop-opacity="0.25" offset="0%"></stop>
            <stop stop-color="hsl(50, 98%, 80%)" stop-opacity="0.25" offset="100%"></stop>
        </linearGradient>
    </defs>
    <g fill="none" stroke-width="1.5" stroke="url(#ssscribble-grad)" stroke-linecap="round">
        <path
            d="M673.56 350.6C666.5 383.46 798.84 429.04 971.99 486.05 1078.69 543.19 1048.14 611.16 906.99 686.21 729.19 756.44 604.12 825.14 574.81 882.16 639.58 918.45 750.68 928.02 852.11 903.46 917.41 853.65 918.25 778.85 866.12 694.96 774.15 631.85 667.72 602.56 567.84 625.67 469.7 704.57 391.37 824.82 332.02 956.36 277.23 1060.07 234.7 1102.96 201.84 1065.71 168.97 962.72 147.34 829.5 140.16 710.81 137.54 640.19 156.09 633.15 197.29 681.8 240.22 771.54 292.52 867.36 333.86 942.26 335.33 986.43 287.32 985.03 178.95 944.05 34.45 871.68 -115.6 781.38 -214.59 687.95 -219.49 592.43 -123.89 508.38 29.8 438.75 146.87 376.11 158.71 325.57 39.34 283.86 -146.49 244.96 -285.49 209.89 -278.43 177.03 -129.19 144.17 56.94 115.07 158.2 92 118.25 71.73 -24.25 62.49 -172.84 68.17 -249.52 80.86 -208.43 110.79 -79.12 155.66 86.29 198.45 220.55 241.57 289.32 270.88 287.47 268.8 234.73 231.24 165.37 152.87 89.73 43.76 40.22 -81.52 21.8 -195.35 22.59 -268.1 46.08 -279.78 80.51 -221.85 121.16 -115.85 160.71 10.7 193.57 113.69 226.44 150.97 251.04 114.76 272.37 23.74 299.91 -95.11 336.2 -196.66 392.36 -251.49 467.73 -250.52 571.35 -191.78 697.63 -94.45 817.64 23.64 917.56 137.4 962.48 230.29 936.78 297.92 841.48 335.53 710.27 349.9 615.19 343.53 603.57 328.95 704.33 315.67 957.62 293.47 912.54 308.45 673.56 350.6Q673.56 350.6 673.56 350.6"
            opacity="0.20"></path>
        <path
            d="M639.56 488.15C627.5 518.66 739.48 560.07 900.93 610.06 1025.27 658.66 1039.94 712.66 945.43 766.69 786.68 812.7 635.7 849.71 546.53 869.56 538.93 870.97 599.72 847.67 690.16 798.59 786.65 738.26 848.94 667.9 867.1 603.58 847.37 568.59 794.46 570.54 726.37 619.24 645.01 710.55 568.44 829.24 504.91 948.25 441 1036.43 392.89 1068.91 362.38 1031.71 331.86 937.59 320.39 814.67 326.76 699.26 332.74 619.62 353.8 592.29 382.28 615.86 397.49 682.82 400.16 767.53 372.86 846.89 307.67 911.79 201.57 943.08 65.08 939.48 -65.34 906.22 -162.3 848.13 -186.48 776.95 -129.08 695.02 -5.47 614.65 130.9 542.15 203.05 470.88 171.01 410.35 34.9 360.83 -138.32 312.78 -256.49 273.52 -244.43 243 -108.71 212.49 67.05 192.16 181.87 182.67 179.28 174.64 72.29 179.66 -70.98 198.04 -184.64 217.66 -208.83 247.79 -141.66 282.69 -9.54 306.84 137.54 321.13 256.5 314.41 329.72 278.02 348.03 210.56 328 113.9 277.8 2.76 224.87 -109.31 184.81 -198.63 148.46 -244.58 133.48 -234.63 137.56 -166.79 145.79 -63.16 166.63 53.57 197.14 147.69 227.66 184.91 266.4 158.64 315.71 82.24 369.18 -24.98 439.66 -126.31 528.89 -195.26 621.83 -221.6 725.02 -196.2 822.25 -129.44 889.31 -33.36 914.8 73.17 881.57 173.5 802.61 262.57 691.7 329.69 591.35 375.31 555.95 402.5 607.51 415.74 743.54 422.61 909.18 421.46 1033.54 422.97 1047.91 431.91 944.86 439.47 775.28 457.64 639.56 488.15Q639.56 488.15 639.56 488.15"
            opacity="0.81"></path>
        <path
            d="M605.56 593.06C589.32 621.23 681.62 654.66 827.69 691.03 960.63 725.35 1012.63 758.55 967.26 785.7 845.64 804.89 696.81 811.14 572.15 799.78 500.25 776.29 494.01 734.37 536.89 677.55 614.84 621.94 693.54 568.67 752.46 531.47 793.09 526.07 801.82 555.79 785.81 623.63 753.15 720.97 709.98 833.59 666.39 938.34 619.03 1011.39 579.25 1034.44 551.08 997.71 522.91 912.29 507.7 800 501.93 689.77 492.41 604.68 484.33 560.79 468.18 560.97 435.38 602.78 380.27 669.15 296.22 742.04 193.89 814.36 74.76 866.38 -40.1 892.24 -119.9 895.37 -147.05 873.03 -104.48 832.58 -9.15 777.67 114.41 716.07 215.39 654.99 240.12 590.53 172.09 532.37 28.27 483.42 -128.66 434.45 -226.66 395.26 -210.43 367.08 -87.97 338.92 75.58 323.11 198.59 318.95 228.6 314.78 161 321.7 38.5 337.35 -89.74 349.62 -163.63 364.83 -161.26 376.33 -88.12 373.39 30.68 355.29 158.25 315.26 275 252.48 355.72 167.07 398.56 65.43 408.06 -36.78 395.27 -128.41 375.5 -190.88 345.88 -211.72 325.26 -183.87 319.48 -109.66 313.67 -10.3 324.38 96.26 352.55 181.69 380.72 218.45 425.01 201.12 483.94 138.95 542.84 45.07 614.69 -51.51 693.12 -128.22 761.71 -175.42 820.89 -179.88 854.8 -145.15 855.37 -78.63 815.09 8.02 735.25 100.55 644.6 194.29 559.19 276.65 515.37 343.55 542.33 398.32 641.48 438.45 790.38 468.08 933.52 489.74 1017.16 507.78 998.01 526.57 885.87 543.33 728.02 564.9 605.56 593.06Q605.56 593.06 605.56 593.06"
            opacity="0.68"></path>
        <path
            d="M571.56 626.51C551.98 652.33 625.58 676.59 753.52 697.72 886.57 717.02 965.8 729.83 966.14 733.07 891.87 730.76 769.25 715.38 638.51 685.87 526.95 651.79 460.8 607.4 442.29 558.55 467.1 519.64 517 491.37 572.43 483.82 632.41 505.57 676.01 557.1 699.5 636.81 713.5 734.1 710.25 836.89 695.19 926.3 676.36 984.88 652.5 999.57 626.69 963.71 600.87 886.79 574.31 785.38 544.44 681.99 510.8 594.88 467.09 538.6 408.34 518.45 340.11 535.2 253.99 578.9 154.22 636.74 58.99 704.07 -27.97 763.37 -86.62 806.69 -101.95 836.66 -66.41 845.33 18.25 835.64 122.11 812.48 221.58 777.75 276.92 737.44 257.66 691.47 163.73 646.2 20.72 605.56 -117.17 563.86 -196.01 529.16 -176.43 503.34 -66.94 477.52 82.9 461.8 208.87 454.81 265.31 446.74 237.01 445.05 146.27 446.28 24.91 441.84 -76.01 434.06 -126.25 417.43 -118.57 387.33 -54.93 341.6 41.92 277.79 157.03 200.63 264.17 110.72 350 16.51 416.13 -68.21 456.95 -135.07 479.95 -170.76 489.04 -169.55 493.1 -127.97 500.13 -50.83 504.15 42.58 517.6 138.76 543.42 215.68 569.24 251.56 606.21 242.12 650.88 193.51 692.54 114.07 735.45 25.98 771.11 -52.39 792.85 -113.18 794.55 -141.56 768.21 -136.42 722.18 -101.99 652.11 -43.11 570.84 29.63 507.82 112.32 474.79 193.78 494 267.65 571.12 336.96 695.21 394.86 835.49 441.91 945.16 483.42 988.15 517.58 941.67 546.97 825.67 574.54 681.05 600.7 571.56 626.51Q571.56 626.51 571.56 626.51"
            opacity="0.27"></path>
        <path
            d="M537.53 576.13C515.49 599.6 571.75 616.16 679.81 625.32 853.09 632.88 872.79 596.16 722.38 552.22 603.31 521.92 502.69 488.95 433.67 459.47 398.08 444.04 394.57 443.15 411.71 462.95 447.14 506.22 484.42 572.05 514.42 656.2 545.33 748.07 562.73 838.15 565.68 911.78 567.26 956.86 556.12 964.29 532.65 929.72 509.18 861.11 474.48 770.66 428.64 675.54 381.42 589.6 321.32 525.32 249.73 488.96 179.06 482.93 103.13 502.68 31.52 540.11 -21.79 592.74 -51.98 646.81 -47.15 694.39 -8.9 737.77 63.88 766.65 158.51 780.48 244.15 784.95 303.77 776.69 311.85 759.33 256.96 736.43 148.32 709.31 13.63 681.42 -103.48 652.08 -164.5 624.83 -142.46 601.35 -45.59 577.88 89.38 559.31 213.43 544.37 289.17 528 296.57 512.42 243.16 494.65 145.99 471.33 42.35 440.93 -38.23 400.29 -84.07 350.28 -81.47 287.7 -38.21 213.56 37.01 135.21 127.55 53.31 217.75 -23.74 307.14 -85.61 381.62 -126.41 439.61 -137.59 488.82 -118.44 525.58 -67.51 554.39 9.35 580.04 95.42 603.51 181.11 626.99 249.72 650.46 284.29 672.82 281.62 691.44 245.59 706.9 181.02 712.84 104.3 704.31 29.64 687.01 -37.3 651.18 -82.08 597.97 -100.92 543.95 -96.27 487.1 -67.55 442.63 -21.36 430.12 38.88 455.34 105.54 525.61 172.02 630.63 240.36 755.32 302.58 869.7 356.54 940.33 408.33 946.31 452.11 879.65 488.27 764.67 523.38 634.44 552.65 537.56 576.12Q537.53 576.13 537.53 576.13"
            opacity="0.69"></path>
        <path
            d="M503.83 460.43C479.79 481.56 519.97 493.62 607.2 497.04 719.3 500.26 819.69 494.68 883.37 481.21 901.2 468.48 868.12 449.82 796.86 428.2 699.74 412.26 597.36 399.3 505.64 394.3 428.46 403.29 375.51 426.88 344.77 467.86 332.86 524.99 334.08 597.05 340.4 678.77 354.11 760.84 364.02 836.32 365.57 894.37 368.22 927.17 359.8 928.49 338.68 895.61 317.56 835.08 284.72 755.59 242.23 669.85 200.85 587.98 152.51 520.05 102.18 472.29 59.25 447.53 23.24 444.93 2.6 460.14 0.78 492.19 23.4 531.62 72.9 571.82 136.93 614.82 214.25 650.5 289.38 676.26 338.64 697.83 352.78 708.51 319.46 709.43 240.3 706.57 127.89 696.56 7.64 681.42 -87.74 665.08 -132.2 645.84 -108.16 624.72 -23.23 603.59 96.14 581.58 213.84 558.09 301.02 533.38 337.26 504.97 320.93 471.22 258.43 433.7 172.83 388.23 87.44 334.11 12.67 275.78 -31.43 209.78 -41.82 139.09 -22.62 71.2 22.36 6.72 81.89 -47.32 153.65 -84.53 225.12 -100.88 289.5 -91.61 353.52 -59.35 406.78 -3.45 448.58 70.26 489.11 147.84 519.97 223.05 541.09 283.58 562.22 316.48 572.61 319.45 571.92 294.82 569.96 244.92 555.13 181.47 527.72 114.89 499.95 48.64 463.27 -4.47 424.07 -39.61 397.1 -58.59 382.43 -57.14 390.92 -38.44 428.99 -5.75 498.16 37.53 594.92 86.02 702.31 140.2 806.85 193.65 884.84 242.99 916.66 293.07 892.43 337.08 813.41 373.7 703.86 410.12 588.76 439.31 503.83 460.43Q503.83 460.43 503.83 460.43"
            opacity="0.68"></path>
        <path
            d="M469.52 322.5C445.06 341.28 471.67 352.28 538.75 356.31 633.06 360.77 728.45 359.21 804.69 353.31 853.12 349.8 862.3 344.75 835.39 341.09 778.41 344.07 702.16 353.02 619.56 371.1 534.12 400.21 458.4 441.39 396.71 494.96 345.24 557.52 307.99 628.16 281.66 701.75 262.66 770.89 248.58 830.9 235.44 874.17 224.28 896.1 210.17 892.49 191.39 861.69 172.61 809 150.06 740.34 125.8 664.81 103.53 589.45 83.45 521.98 69.9 467.89 63.7 429.68 70.02 408.7 92.55 403.29 125.3 413.17 174.07 432.94 234.89 457.86 292.88 489.48 346.87 519.7 384.29 545.24 391.65 570.99 365.63 589.38 303.44 599.64 213.44 608.44 107.36 609.56 5.81 603.47 -68.51 596.73 -98.93 583.89 -74.47 565.11 -1.55 546.33 101.61 522.51 209.45 493.83 301.09 464.51 358.36 429.23 374.89 387.89 350.69 345.09 296.89 295.78 228.61 241.08 152.58 186.6 87.61 129.43 41.94 73.19 13.49 23.66 8.52 -18.36 22.58 -47.8 51.47 -61.94 90.54 -57.79 132.97 -33.35 180.68 6.96 225.15 63.75 262.61 131.86 300.82 200.14 330.16 265 348.94 317.69 367.72 348.49 375.05 355.91 372.26 341.22 370.21 305.19 359.91 255.87 344.74 200.49 334.85 140.67 326.7 86.87 326.75 43.86 341.62 9.84 373.54 -9.07 426.59 -13.56 496.86 -7.03 584.09 10.97 679.68 36.92 767.51 69.52 838.16 105.5 876.14 141.55 873.39 179.99 826.82 215.71 742.43 246.67 641.85 278.05 542.48 303.72 469.55 322.49Q469.52 322.5 469.52 322.5"
            opacity="0.53"></path>
        <path
            d="M435.55 213.18C428.49 246.04 553.13 263.14 707.19 273.5 814.16 294.33 809.7 328.07 723.53 389.39 588.82 477.79 460.08 595.92 366.51 721.65 285.5 820.54 232.51 864.96 199.65 827.68 166.79 724.69 157.16 591.29 181.23 473.92 256.58 379.39 414.85 422.32 268.6 460.11 90.45 481.21 -47.5 477.13 -40.44 444.26 108.79 411.4 294.43 352.88 401.49 274.83 390.28 198.33 294.55 110.57 189.76 32.45 98.08 -15.5 66.4 -19.86 80.55 35.32 117.3 128.61 162.67 248.69 195.53 351.68 228.4 388.96 245.64 357.86 265.83 283.05 308.63 181.41 391.59 98.13 526.34 52.81 674.2 34.55 804.78 52.1 840.09 88.22 757.11 134.8 584.79 180.32 435.55 213.18Q435.55 213.18 435.55 213.18"
            opacity="0.87"></path>
        <path
            d="M401.53 173.02C385.34 201.18 471.47 229.56 599.2 262.89 722.44 303.83 779.52 361.96 767.36 441.31 703.59 532.15 613.99 637.01 532.28 735.65 446.7 805.68 386.01 830.45 357.84 793.72 329.68 708.3 336.7 595.91 373.47 488.36 406.36 400.11 452 344.12 478.86 317.68 454.11 316.53 367.15 325.82 223.26 330.83 74.89 341.05 -22.65 335.17 -6.46 307.01 115.97 278.84 278.66 231.06 401.57 172.02 448.94 118.2 419.63 64.95 353.88 29.19 265.42 18.7 201.18 44.81 173.75 112.41 157.09 199.3 166.98 300.27 195.14 385.69 223.3 422.45 267.08 409.1 332.54 359.72 408.78 281.72 516.97 206.73 642.35 152.81 745.03 110.37 804.23 96.2 777.53 104.08 675.28 119.55 524.01 144.84 401.56 173.01Q401.53 173.02 401.53 173.02"
            opacity="0.24"></path>
        <path
            d="M367.53 216.83C345.49 240.3 397.12 274.93 489.81 320.63 601.2 369.89 685 434.88 724.84 512.6 731.61 590.9 704.35 672.28 664.14 741.15 613.82 785.07 571.08 794.29 547.61 759.72 524.14 691.11 522.16 600.55 531.8 508.52 531.34 422.99 521.96 355.48 484.43 308.95 413.82 278.84 305.13 261.45 176.53 248.49 66.63 240.84 5.49 227.67 27.53 204.2 124.4 180.73 258.46 149.18 378.89 116.15 475.99 78.81 413.89 105.6 361.22 195.22 330.28 270.04 324.64 351.08 348.11 419.69 371.57 454.28 421.92 454.58 493.53 427.87 563.75 376.21 646.64 319.73 720.36 272.18 761.74 225.23 757.5 196.87 692.2 188.29 588.98 183.26 464.44 193.35 367.56 216.82Q367.53 216.83 367.53 216.83"
            opacity="0.84"></path>
        <path
            d="M333.67 328.39C309.06 347.17 332.36 380.12 388.24 424.28 468.86 468.87 545.86 524.41 602.86 585.26 648.76 641.66 668.89 695.3 668.8 735.96 661.65 758.31 645.65 756.45 626.87 725.67 608.09 672.98 588.31 604.15 562.92 531.38 530.47 458.08 481.04 392.63 410.52 339.89 328.91 294.94 232 260.7 137.61 234.84 67.97 212.4 37.06 192.59 61.67 173.82 134.68 155.04 237.18 139.06 340.21 128.97 431.42 122.28 494.5 127.22 528.59 147.56 539.32 175.69 535.62 221.21 530.92 280.75 520.21 339.76 520.91 400.98 539.69 453.67 558.46 484.45 593.54 493.92 636.8 485.34 674.04 458.44 707.04 424.72 720.93 392.92 711.45 356.69 668.28 330.46 590.84 318.4 501.57 306.79 406.68 309.62 333.67 328.39Q333.67 328.39 333.67 328.39"
            opacity="0.60"></path>
        <path
            d="M299.53 466.54C283.34 494.7 357.24 563.5 439.98 641.26 530.15 700.14 564.48 728.45 536.31 691.72 508.14 606.29 422.82 493.69 295.73 400.31 176.07 314.94 79.34 255.39 95.53 227.23 217.98 199.06 378.84 207.6 490.16 256.06 563.94 312.53 598.81 402.29 626.98 487.72 655.14 524.45 671.28 518.98 634.41 497.01 560.01 456.17 421.98 438.37 299.53 466.54Q299.53 466.54 299.53 466.54"
            opacity="0.77"></path>
        <path
            d="M265.56 579.99C270.88 617.55 381.2 693.82 343.65 657.71 306.09 536.51 134.88 382.08 129.56 344.52 306.37 306.97 506.61 400.51 544.17 521.71 581.72 557.82 442.37 542.44 265.56 579.99Q265.56 579.99 265.56 579.99"
            opacity="0.50"></path>
    </g>
</svg>